<svg id="ai" xmlns="http://www.w3.org/2000/svg" width="105.733" height="105.733" viewBox="0 0 105.733 105.733">
  <path id="Path_34" data-name="Path 34" d="M156.967,112H118.134a6.317,6.317,0,0,0-6.31,6.31v38.833a6.317,6.317,0,0,0,6.31,6.31h38.833a6.318,6.318,0,0,0,6.31-6.31V118.31A6.318,6.318,0,0,0,156.967,112Zm3.4,45.143a3.4,3.4,0,0,1-3.4,3.4H118.134a3.4,3.4,0,0,1-3.4-3.4V118.31a3.4,3.4,0,0,1,3.4-3.4h38.833a3.4,3.4,0,0,1,3.4,3.4Zm0,0" transform="translate(-84.684 -84.817)" fill="#fff"/>
  <path id="Path_35" data-name="Path 35" d="M139.1,82H90.561a8.746,8.746,0,0,0-8.737,8.737v48.541a8.747,8.747,0,0,0,8.737,8.737H139.1a8.748,8.748,0,0,0,8.737-8.737V90.737A8.748,8.748,0,0,0,139.1,82Zm5.825,57.278A5.832,5.832,0,0,1,139.1,145.1H90.561a5.831,5.831,0,0,1-5.825-5.825V90.737a5.831,5.831,0,0,1,5.825-5.825H139.1a5.832,5.832,0,0,1,5.825,5.825Zm0,0" transform="translate(-61.965 -62.098)" fill="#fff"/>
  <path id="Path_36" data-name="Path 36" d="M234.9,373.645a1.456,1.456,0,0,0-1.456,1.456v12.135a1.456,1.456,0,0,0,2.912,0V375.1A1.457,1.457,0,0,0,234.9,373.645Zm0,0" transform="translate(-176.784 -282.959)" fill="#fff"/>
  <path id="Path_37" data-name="Path 37" d="M191.663,373.645a1.456,1.456,0,0,0-1.456,1.456v12.135a1.456,1.456,0,0,0,2.912,0V375.1A1.457,1.457,0,0,0,191.663,373.645Zm0,0" transform="translate(-144.043 -282.959)" fill="#fff"/>
  <path id="Path_38" data-name="Path 38" d="M148.429,373.645a1.457,1.457,0,0,0-1.456,1.456v12.135a1.456,1.456,0,0,0,2.912,0V375.1A1.457,1.457,0,0,0,148.429,373.645Zm0,0" transform="translate(-111.302 -282.959)" fill="#fff"/>
  <path id="Path_39" data-name="Path 39" d="M278.132,373.645a1.456,1.456,0,0,0-1.456,1.456v12.135a1.456,1.456,0,0,0,2.912,0V375.1A1.457,1.457,0,0,0,278.132,373.645Zm0,0" transform="translate(-209.525 -282.959)" fill="#fff"/>
  <path id="Path_40" data-name="Path 40" d="M193.119,13.591V1.456a1.456,1.456,0,0,0-2.912,0V13.591a1.456,1.456,0,0,0,2.912,0Zm0,0" transform="translate(-144.043)" fill="#fff"/>
  <path id="Path_41" data-name="Path 41" d="M236.353,13.591V1.456a1.456,1.456,0,1,0-2.912,0V13.591a1.456,1.456,0,1,0,2.912,0Zm0,0" transform="translate(-176.784)" fill="#fff"/>
  <path id="Path_42" data-name="Path 42" d="M279.588,13.591V1.456a1.456,1.456,0,1,0-2.912,0V13.591a1.456,1.456,0,1,0,2.912,0Zm0,0" transform="translate(-209.525)" fill="#fff"/>
  <path id="Path_43" data-name="Path 43" d="M149.885,13.591V1.456a1.456,1.456,0,1,0-2.912,0V13.591a1.456,1.456,0,1,0,2.912,0Zm0,0" transform="translate(-111.302)" fill="#fff"/>
  <path id="Path_44" data-name="Path 44" d="M387.237,190.207H375.1a1.456,1.456,0,1,0,0,2.912h12.135a1.456,1.456,0,0,0,0-2.912Zm0,0" transform="translate(-282.959 -144.043)" fill="#fff"/>
  <path id="Path_45" data-name="Path 45" d="M387.237,233.441H375.1a1.456,1.456,0,1,0,0,2.912h12.135a1.456,1.456,0,0,0,0-2.912Zm0,0" transform="translate(-282.959 -176.784)" fill="#fff"/>
  <path id="Path_46" data-name="Path 46" d="M387.237,276.676H375.1a1.456,1.456,0,1,0,0,2.912h12.135a1.456,1.456,0,0,0,0-2.912Zm0,0" transform="translate(-282.959 -209.525)" fill="#fff"/>
  <path id="Path_47" data-name="Path 47" d="M387.237,146.973H375.1a1.456,1.456,0,1,0,0,2.912h12.135a1.456,1.456,0,0,0,0-2.912Zm0,0" transform="translate(-282.959 -111.302)" fill="#fff"/>
  <path id="Path_48" data-name="Path 48" d="M13.591,233.441H1.456a1.456,1.456,0,1,0,0,2.912H13.591a1.456,1.456,0,1,0,0-2.912Zm0,0" transform="translate(0 -176.784)" fill="#fff"/>
  <path id="Path_49" data-name="Path 49" d="M13.591,190.207H1.456a1.456,1.456,0,0,0,0,2.912H13.591a1.456,1.456,0,0,0,0-2.912Zm0,0" transform="translate(0 -144.043)" fill="#fff"/>
  <path id="Path_50" data-name="Path 50" d="M13.591,146.973H1.456a1.456,1.456,0,1,0,0,2.912H13.591a1.456,1.456,0,1,0,0-2.912Zm0,0" transform="translate(0 -111.302)" fill="#fff"/>
  <path id="Path_51" data-name="Path 51" d="M13.591,276.676H1.456a1.456,1.456,0,1,0,0,2.912H13.591a1.456,1.456,0,1,0,0-2.912Zm0,0" transform="translate(0 -209.525)" fill="#fff"/>
  <path id="Path_52" data-name="Path 52" d="M184.3,172.281a1.822,1.822,0,0,0-1.816-.961,1.781,1.781,0,0,0-1.789.961l-5.313,17.3a.768.768,0,0,0-.027.241c0,.694.988,1.175,1.762,1.175a.909.909,0,0,0,.988-.588l1.094-3.79H185.8l1.094,3.79a.9.9,0,0,0,.961.588c.8,0,1.789-.507,1.789-1.175a.753.753,0,0,0-.054-.241Zm-4.485,12.067,2.67-9.157,2.67,9.157Zm0,0" transform="translate(-132.799 -129.74)" fill="#fff"/>
  <path id="Path_53" data-name="Path 53" d="M244.317,171.98c-.694,0-1.415.266-1.415.907v17.674c0,.614.721.935,1.415.935.721,0,1.415-.32,1.415-.935V172.888C245.732,172.246,245.038,171.98,244.317,171.98Zm0,0" transform="translate(-183.948 -130.24)" fill="#fff"/>
</svg>
