<svg xmlns="http://www.w3.org/2000/svg" width="606.92" height="609.151" viewBox="0 0 606.92 609.151">
  <g id="GrayLogo" transform="translate(-284.391 -257.792)">
    <path id="Path_13" data-name="Path 13" d="M307.04,369.265l42.289,42.282,69.185-69.192,69.177,69.192,42.29-42.282L418.514,257.792Z" transform="translate(169.599)" fill="rgba(112,112,112,0.04)"/>
    <path id="Path_14" data-name="Path 14" d="M418.514,380.635l-69.185-69.192L307.04,353.725,418.514,465.191,529.979,353.725l-42.29-42.282Z" transform="translate(169.598 401.752)" fill="rgba(112,112,112,0.04)"/>
    <path id="Path_15" data-name="Path 15" d="M380.067,280.572l-42.289,42.289,69.192,69.177-69.192,69.184L380.067,503.5,491.534,392.038Z" transform="translate(399.777 170.586)" fill="rgba(112,112,112,0.04)"/>
    <path id="Path_16" data-name="Path 16" d="M530.007,322.833l-42.281-42.3L311.114,457.148l-4.107,4.115,42.266,42.3Z" transform="translate(169.352 170.311)" fill="rgba(112,112,112,0.04)"/>
    <path id="Path_17" data-name="Path 17" d="M395.857,280.542,284.391,392,395.857,503.474l42.289-42.281L368.954,392l69.192-69.169Z" transform="translate(0 170.36)" fill="rgba(112,112,112,0.04)"/>
  </g>
</svg>
