<svg xmlns="http://www.w3.org/2000/svg" width="54.45" height="54.65" viewBox="0 0 54.45 54.65">
  <g id="Logo" transform="translate(-284.391 -257.792)">
    <path id="Path_13" data-name="Path 13" d="M307.04,267.792l3.794,3.793,6.207-6.208,6.206,6.208,3.794-3.793-10-10Z" transform="translate(-5.401)" fill="#1854d0"/>
    <path id="Path_14" data-name="Path 14" d="M317.041,317.651l-6.207-6.208-3.794,3.793,10,10,10-10-3.794-3.793Z" transform="translate(-5.401 -12.795)" fill="#1854d0"/>
    <path id="Path_15" data-name="Path 15" d="M341.573,280.572l-3.794,3.794,6.208,6.206-6.208,6.207,3.794,3.793,10-10Z" transform="translate(-12.732 -5.433)" fill="#1854d0"/>
    <path id="Path_16" data-name="Path 16" d="M327.013,284.33l-3.793-3.795-15.845,15.845-.368.369,3.792,3.8Z" transform="translate(-5.394 -5.424)" fill="#1854d0"/>
    <path id="Path_17" data-name="Path 17" d="M294.391,280.542l-10,10,10,10,3.794-3.793-6.208-6.208,6.208-6.206Z" transform="translate(0 -5.426)" fill="#1854d0"/>
  </g>
</svg>
