<svg xmlns="http://www.w3.org/2000/svg" width="181.684" height="58.12" viewBox="0 0 181.684 58.12">
  <g id="Logowhite" transform="translate(-284.391 -257.792)">
    <path id="Path_1" data-name="Path 1" d="M376.514,272.769h3.614c.028,1.765,1.486,3.138,3.951,3.138,2.1,0,3.446-.9,3.446-2.381,0-4.485-10.423-.869-10.423-8.883,0-3.11,2.465-5.659,6.781-5.659,3.726,0,6.893,1.96,7,6.052h-3.727c-.027-1.625-1.177-2.718-3.277-2.718-2.074,0-3.082,1.037-3.082,2.27,0,4.09,10.563.729,10.563,8.658,0,3.474-2.69,6.08-7.4,6.08-4.483,0-7.453-2.661-7.453-6.556" transform="translate(-21.051 5.06)" fill="#fff"/>
    <path id="Path_2" data-name="Path 2" d="M402.591,284.818H404.1a2.338,2.338,0,0,0,2.382-1.709l.392-1.037-5.856-15.187h3.839l3.67,10.367h.225l3.559-10.367h3.895l-6.5,17.26c-.924,2.494-2.437,3.923-5.3,3.923h-1.821Z" transform="translate(-29.31 2.398)" fill="#fff"/>
    <path id="Path_3" data-name="Path 3" d="M427.517,266.7h3.475v1.794h.2a4.611,4.611,0,0,1,4.147-2.158,5.11,5.11,0,0,1,5.324,5.464v9.639h-3.642v-8.686a2.768,2.768,0,0,0-2.83-3A3.053,3.053,0,0,0,431.16,273v8.434h-3.643Z" transform="translate(-38.238 2.583)" fill="#fff"/>
    <path id="Path_4" data-name="Path 4" d="M453.5,274.655v-6.921H451.01v-2.886h1.654a1.016,1.016,0,0,0,1.064-1.121v-2.97h3.419v4.062h4.063v2.914h-4.063v6.781a1.8,1.8,0,0,0,2.018,2.017h1.961v3.026h-2.718c-3.054,0-4.9-1.736-4.9-4.9" transform="translate(-46.154 4.463)" fill="#fff"/>
    <path id="Path_5" data-name="Path 5" d="M480.823,274.1c0-2.773-1.682-4.454-3.979-4.454-2.325,0-3.923,1.849-3.923,4.454,0,2.663,1.6,4.428,3.951,4.428,2.438,0,3.951-1.963,3.951-4.428m-11.6.057c0-4.624,2.8-7.819,6.837-7.819a5.334,5.334,0,0,1,4.483,2.27h.2V266.7h3.643v14.739H480.8v-1.878h-.2a5.182,5.182,0,0,1-4.427,2.242c-4.119,0-6.949-3.081-6.949-7.649" transform="translate(-52.291 2.583)" fill="#fff"/>
    <path id="Path_6" data-name="Path 6" d="M499.986,273.974l-4.679-7.089h4.006l2.886,4.652h.168l2.858-4.652h4.007l-4.651,7.146,5.044,7.592H505.59l-3.222-4.987h-.224l-3.222,4.987h-4.007Z" transform="translate(-60.948 2.398)" fill="#fff"/>
    <path id="Path_7" data-name="Path 7" d="M381.909,302.43a3.869,3.869,0,0,0,1.4,2.746l.841-.448c1.428-.7,1.849-1.317,1.849-2.354a1.914,1.914,0,0,0-2.045-1.934,1.977,1.977,0,0,0-2.046,1.99m4.763,11.293-4.2-4.652a3.11,3.11,0,0,0-2.017,2.8c0,1.485,1.4,2.661,3.251,2.661a6.05,6.05,0,0,0,2.969-.811m3.279,3.614-1.065-1.178a9.5,9.5,0,0,1-5.211,1.542c-3.586,0-6.781-2.018-6.781-5.828,0-2.185,1.15-3.838,3.474-5.156a6.732,6.732,0,0,1-1.877-4.343c0-2.718,2.13-5.015,5.464-5.015,3.222,0,5.408,2.185,5.435,4.958.029,2.467-1.457,3.868-3.5,4.932l-.448.253L389,311.368a7.2,7.2,0,0,0,.784-5.1h3.223a9.42,9.42,0,0,1-1.709,7.622l3.166,3.447Z" transform="translate(-21.179 -7.871)" fill="#fff"/>
    <path id="Path_8" data-name="Path 8" d="M416.108,311.144h3.614c.028,1.765,1.485,3.138,3.95,3.138,2.1,0,3.446-.9,3.446-2.381,0-4.484-10.423-.869-10.423-8.883,0-3.11,2.466-5.66,6.781-5.66,3.726,0,6.893,1.961,7.005,6.052h-3.727c-.028-1.624-1.176-2.717-3.278-2.717-2.073,0-3.082,1.036-3.082,2.27,0,4.091,10.563.728,10.563,8.658,0,3.474-2.69,6.08-7.4,6.08-4.483,0-7.453-2.661-7.453-6.557" transform="translate(-34.393 -7.871)" fill="#fff"/>
    <path id="Path_9" data-name="Path 9" d="M441.461,312.445a7.454,7.454,0,0,1,7.706-7.734c3.781,0,6.724,2.327,7.284,5.8h-3.726a3.6,3.6,0,0,0-3.531-2.494c-2.465,0-4.035,1.961-4.035,4.427,0,2.549,1.653,4.426,4.063,4.426a3.476,3.476,0,0,0,3.474-2.382h3.728c-.561,3.419-3.476,5.688-7.257,5.688a7.454,7.454,0,0,1-7.706-7.733" transform="translate(-42.936 -10.348)" fill="#fff"/>
    <path id="Path_10" data-name="Path 10" d="M479.1,312.445a4.156,4.156,0,1,0-4.146,4.426,4.156,4.156,0,0,0,4.146-4.426m-11.992,0a7.846,7.846,0,1,1,7.846,7.733,7.537,7.537,0,0,1-7.846-7.733" transform="translate(-51.579 -10.348)" fill="#fff"/>
    <path id="Path_11" data-name="Path 11" d="M506.67,312.446c0-2.691-1.6-4.427-3.978-4.427-2.41,0-3.923,1.933-3.923,4.427,0,2.745,1.681,4.427,3.951,4.427,2.353,0,3.95-1.822,3.95-4.427m-11.46-7.37H498.8v1.877h.2a5.139,5.139,0,0,1,4.427-2.241c4.119,0,6.949,3.082,6.949,7.677s-2.8,7.789-6.837,7.789a5.077,5.077,0,0,1-4.483-2.27h-.2v8.35H495.21Z" transform="translate(-61.048 -10.348)" fill="#fff"/>
    <path id="Path_12" data-name="Path 12" d="M532.377,310.932a3.59,3.59,0,0,0-3.838-3.306,3.787,3.787,0,0,0-3.838,3.306Zm-11.263,1.6c0-4.652,3.11-7.819,7.425-7.819,4.735,0,7.313,3.5,7.313,7.649v1.149H524.644a4.129,4.129,0,0,0,7.677,1.709h3.39c-.728,3-3.362,4.959-7.173,4.959a7.287,7.287,0,0,1-7.425-7.649" transform="translate(-69.776 -10.348)" fill="#fff"/>
    <g id="Group_1" data-name="Group 1" transform="translate(284.391 257.792)">
      <path id="Path_13" data-name="Path 13" d="M307.04,268.376l4.015,4.015,6.569-6.57,6.568,6.57,4.015-4.015-10.584-10.584Z" transform="translate(-288.786 -257.792)" fill="#fff"/>
      <path id="Path_14" data-name="Path 14" d="M317.624,318.013l-6.569-6.57-4.015,4.015,10.585,10.584,10.584-10.584-4.015-4.015Z" transform="translate(-288.786 -268.202)" fill="#fff"/>
      <path id="Path_15" data-name="Path 15" d="M341.794,280.572l-4.015,4.015,6.57,6.568-6.57,6.569,4.015,4.015,10.584-10.584Z" transform="translate(-294.751 -262.212)" fill="#fff"/>
      <path id="Path_16" data-name="Path 16" d="M328.181,284.552l-4.015-4.016L307.4,297.305l-.39.391,4.013,4.017Z" transform="translate(-288.779 -262.205)" fill="#fff"/>
      <path id="Path_17" data-name="Path 17" d="M294.975,280.542l-10.584,10.583,10.584,10.585,4.015-4.015-6.57-6.57,6.57-6.568Z" transform="translate(-284.391 -262.206)" fill="#fff"/>
    </g>
  </g>
</svg>
