<svg xmlns="http://www.w3.org/2000/svg" width="171.667" height="54.915" viewBox="0 0 171.667 54.915">
  <g id="Logo" transform="translate(-284.391 -257.792)">
<g id="text">
    <path id="Path_1" data-name="Path 1" d="M376.514,272.009h3.415c.026,1.668,1.4,2.965,3.733,2.965,1.985,0,3.256-.848,3.256-2.25,0-4.237-9.848-.821-9.848-8.394,0-2.939,2.329-5.347,6.407-5.347,3.521,0,6.513,1.852,6.618,5.718h-3.521c-.026-1.535-1.112-2.568-3.1-2.568-1.96,0-2.913.98-2.913,2.144,0,3.865,9.98.688,9.98,8.181,0,3.283-2.542,5.745-6.989,5.745-4.236,0-7.042-2.514-7.042-6.195" transform="translate(-24.97 4.716)" fill="#1a1818"/>
    <path id="Path_2" data-name="Path 2" d="M402.5,283.829h1.429a2.209,2.209,0,0,0,2.251-1.615l.37-.98-5.533-14.349h3.627l3.468,9.8h.212l3.362-9.8h3.68l-6.143,16.308c-.873,2.357-2.3,3.707-5,3.707H402.5Z" transform="translate(-34.124 1.764)" fill="#1a1818"/>
    <path id="Path_3" data-name="Path 3" d="M427.517,266.68H430.8v1.695h.185a4.357,4.357,0,0,1,3.919-2.039,4.828,4.828,0,0,1,5.03,5.163v9.107h-3.441V272.4a2.616,2.616,0,0,0-2.674-2.832,2.885,2.885,0,0,0-2.859,3.071v7.969h-3.442Z" transform="translate(-44.021 1.969)" fill="#1a1818"/>
    <path id="Path_4" data-name="Path 4" d="M453.367,273.889V267.35H451.01v-2.727h1.563a.96.96,0,0,0,1.005-1.059v-2.806h3.23V264.6h3.839v2.753h-3.839v6.407a1.705,1.705,0,0,0,1.906,1.906h1.853v2.859H458c-2.886,0-4.633-1.64-4.633-4.633" transform="translate(-52.796 4.053)" fill="#1a1818"/>
    <path id="Path_5" data-name="Path 5" d="M480.184,273.669c0-2.621-1.589-4.209-3.76-4.209-2.2,0-3.707,1.747-3.707,4.209,0,2.516,1.51,4.184,3.733,4.184,2.3,0,3.733-1.854,3.733-4.184m-10.961.054c0-4.369,2.648-7.387,6.46-7.387a5.04,5.04,0,0,1,4.236,2.145h.185v-1.8h3.442v13.926h-3.389v-1.774h-.186a4.9,4.9,0,0,1-4.183,2.118c-3.892,0-6.566-2.911-6.566-7.227" transform="translate(-59.599 1.97)" fill="#1a1818"/>
    <path id="Path_6" data-name="Path 6" d="M499.706,273.583l-4.421-6.7h3.785l2.727,4.4h.159l2.7-4.4h3.786l-4.395,6.752,4.766,7.174H505l-3.044-4.712h-.212l-3.044,4.712h-3.786Z" transform="translate(-69.195 1.764)" fill="#1a1818"/>
    <path id="Path_7" data-name="Path 7" d="M381.633,302.15a3.655,3.655,0,0,0,1.324,2.595l.794-.423c1.349-.662,1.747-1.245,1.747-2.224a1.808,1.808,0,0,0-1.932-1.827,1.868,1.868,0,0,0-1.933,1.88m4.5,10.67-3.971-4.4a2.938,2.938,0,0,0-1.906,2.648c0,1.4,1.324,2.515,3.072,2.515a5.717,5.717,0,0,0,2.805-.767m3.1,3.415-1.006-1.113a8.981,8.981,0,0,1-4.924,1.457c-3.389,0-6.407-1.906-6.407-5.507,0-2.065,1.086-3.627,3.283-4.872a6.361,6.361,0,0,1-1.774-4.1,5.169,5.169,0,0,1,10.3-.054c.027,2.331-1.376,3.654-3.308,4.66l-.423.239,3.362,3.653a6.8,6.8,0,0,0,.741-4.818h3.045a8.9,8.9,0,0,1-1.615,7.2l2.991,3.256Z" transform="translate(-25.112 -9.618)" fill="#1a1818"/>
    <path id="Path_8" data-name="Path 8" d="M416.108,310.384h3.415c.026,1.668,1.4,2.965,3.733,2.965,1.986,0,3.256-.847,3.256-2.25,0-4.237-9.848-.821-9.848-8.393,0-2.939,2.33-5.348,6.407-5.348,3.521,0,6.513,1.852,6.619,5.718h-3.521c-.026-1.535-1.111-2.567-3.1-2.567-1.959,0-2.913.979-2.913,2.144,0,3.865,9.981.688,9.981,8.181,0,3.283-2.542,5.745-6.99,5.745-4.236,0-7.042-2.515-7.042-6.2" transform="translate(-39.759 -9.618)" fill="#1a1818"/>
    <path id="Path_9" data-name="Path 9" d="M441.461,312.019a7.043,7.043,0,0,1,7.281-7.308,6.614,6.614,0,0,1,6.882,5.482H452.1a3.4,3.4,0,0,0-3.336-2.357c-2.329,0-3.812,1.853-3.812,4.183a3.867,3.867,0,0,0,3.839,4.182,3.284,3.284,0,0,0,3.282-2.25H455.6c-.53,3.231-3.284,5.375-6.857,5.375a7.043,7.043,0,0,1-7.281-7.307" transform="translate(-49.229 -12.364)" fill="#1a1818"/>
    <path id="Path_10" data-name="Path 10" d="M478.44,312.019a3.926,3.926,0,1,0-3.917,4.182,3.927,3.927,0,0,0,3.917-4.182m-11.331,0a7.414,7.414,0,1,1,7.413,7.307,7.121,7.121,0,0,1-7.413-7.307" transform="translate(-58.81 -12.364)" fill="#1a1818"/>
    <path id="Path_11" data-name="Path 11" d="M506.038,312.019c0-2.542-1.509-4.183-3.759-4.183-2.277,0-3.707,1.826-3.707,4.183,0,2.594,1.589,4.183,3.733,4.183,2.223,0,3.733-1.722,3.733-4.183m-10.828-6.963H498.6v1.774h.185a4.856,4.856,0,0,1,4.183-2.117c3.892,0,6.566,2.912,6.566,7.254s-2.648,7.36-6.46,7.36a4.8,4.8,0,0,1-4.236-2.144h-.186v7.89H495.21Z" transform="translate(-69.306 -12.365)" fill="#1a1818"/>
    <path id="Path_12" data-name="Path 12" d="M531.756,310.589a3.392,3.392,0,0,0-3.627-3.124,3.578,3.578,0,0,0-3.627,3.124Zm-10.642,1.51c0-4.4,2.938-7.387,7.015-7.387,4.474,0,6.909,3.31,6.909,7.228v1.086H524.449a3.9,3.9,0,0,0,7.254,1.615h3.2c-.688,2.833-3.177,4.686-6.777,4.686a6.885,6.885,0,0,1-7.015-7.227" transform="translate(-78.981 -12.364)" fill="#1a1818"/>
    </g>
    <g id="Group_1" data-name="Group 1">
      <path id="Path_13" data-name="Path 13" d="M307.04,267.792l3.794,3.793,6.207-6.208,6.206,6.208,3.794-3.793-10-10Z" transform="translate(-5.401)" fill="#1854d0"/>
      <path id="Path_14" data-name="Path 14" d="M317.041,317.651l-6.207-6.208-3.794,3.793,10,10,10-10-3.794-3.793Z" transform="translate(-5.401 -12.795)" fill="#1854d0"/>
      <path id="Path_15" data-name="Path 15" d="M341.573,280.572l-3.794,3.794,6.208,6.206-6.208,6.207,3.794,3.793,10-10Z" transform="translate(-12.732 -5.433)" fill="#1854d0"/>
      <path id="Path_16" data-name="Path 16" d="M327.013,284.33l-3.793-3.795-15.845,15.845-.368.369,3.792,3.8Z" transform="translate(-5.394 -5.424)" fill="#1854d0"/>
      <path id="Path_17" data-name="Path 17" d="M294.391,280.542l-10,10,10,10,3.794-3.793-6.208-6.208,6.208-6.206Z" transform="translate(0 -5.426)" fill="#1854d0"/>
    </g>
  </g>
</svg>
