<svg xmlns="http://www.w3.org/2000/svg" width="94" height="94" viewBox="0 0 94 94">
  <g id="operations" transform="translate(0)">
    <path id="Path_57" data-name="Path 57" d="M48.677,136.677v-3.032A13.66,13.66,0,0,1,35.032,120H32A16.7,16.7,0,0,0,48.677,136.677Zm0,0" transform="translate(-25.936 -97.258)" fill="#fff"/>
    <path id="Path_58" data-name="Path 58" d="M74.613,85.226A10.613,10.613,0,1,0,64,74.613,10.627,10.627,0,0,0,74.613,85.226Zm0-18.194a7.581,7.581,0,1,1-7.581,7.581A7.59,7.59,0,0,1,74.613,67.032Zm0,0" transform="translate(-51.871 -51.871)" fill="#fff"/>
    <path id="Path_59" data-name="Path 59" d="M100.548,105.1A4.548,4.548,0,1,0,96,100.548,4.554,4.554,0,0,0,100.548,105.1Zm0-6.065a1.516,1.516,0,1,1-1.516,1.516A1.517,1.517,0,0,1,100.548,99.032Zm0,0" transform="translate(-77.807 -77.806)" fill="#fff"/>
    <path id="Path_60" data-name="Path 60" d="M94,72.335V61.085l-4.1-1.431A24.22,24.22,0,0,0,88.1,55.3l1.889-3.909-1.464-1.464a34.728,34.728,0,0,0-2.632-2.916c-1.048-1.059-2.256-2.209-3.076-2.927L72.725,35.262l.866-2.6,3.51,1.756,5.834-5.834-1.756-3.51L84.9,23.836v-8.25l-3.724-1.24,1.756-3.51L77.1,5l-3.51,1.756-1.24-3.725H64.1l-1.24,3.724L59.352,5l-5.834,5.834,1.756,3.51-3.725,1.24v1.157L39.069,5.829A23.546,23.546,0,0,0,23.558,0V.041C23.284.032,23.018,0,22.742,0A22.768,22.768,0,0,0,0,22.742c0,.276.032.543.041.816H0a23.543,23.543,0,0,0,5.828,15.51l10.92,12.481H15.584l-1.24,3.724-3.51-1.756L5,59.351l1.756,3.51L3.032,64.1v8.25l3.724,1.24L5,77.1l5.834,5.834,3.51-1.756,1.24,3.725h8.25l1.24-3.724,3.51,1.756L34.418,77.1l-1.756-3.51,2.614-.871,8.8,10.058c.69.787,1.724,1.883,2.7,2.863a35.9,35.9,0,0,0,3.143,2.875l1.469,1.469L55.295,88.1a24.321,24.321,0,0,0,4.354,1.8L61.085,94h11.25l1.431-4.1a24.22,24.22,0,0,0,4.354-1.8l3.909,1.889,7.957-7.957L88.1,78.12a24.328,24.328,0,0,0,1.8-4.354ZM45.323,55.3a24.328,24.328,0,0,0-1.8,4.354l-4.1,1.431v11.25l4.1,1.431a24.22,24.22,0,0,0,1.8,4.354l-.46.951L13.908,43.7A22.742,22.742,0,0,0,43.7,13.9L79.09,44.855l-.969.469a24.305,24.305,0,0,0-4.354-1.8l-1.432-4.1H61.085l-1.431,4.1a24.22,24.22,0,0,0-4.354,1.8L51.39,43.434l-7.957,7.957ZM54.58,17.771l3.481-1.16.255-.671c.075-.2.152-.386.234-.574l.294-.656L57.2,11.432l2.743-2.743,3.278,1.639.656-.294c.188-.084.378-.159.574-.234l.671-.255,1.16-3.481h3.879l1.16,3.481L72,9.8c.2.075.386.152.574.234l.656.294,3.278-1.639,2.743,2.743L77.609,14.71l.294.656c.084.188.159.378.234.574l.255.671,3.479,1.16V21.65L78.39,22.81l-.255.671c-.075.2-.152.386-.234.574l-.294.656,1.639,3.278L76.5,30.732l-3.278-1.639-.656.294c-.188.084-.378.159-.574.234l-.671.255L70.251,33.1,54.58,19.393ZM22.742,3.033a19.71,19.71,0,1,1-19.71,19.71A19.732,19.732,0,0,1,22.742,3.033Zm7.132,68.292L29.619,72c-.075.2-.152.386-.234.574l-.294.656L30.73,76.5l-2.743,2.743-3.278-1.639-.656.294c-.188.084-.378.159-.574.234l-.671.255-1.16,3.481H17.769l-1.16-3.481-.671-.255c-.2-.075-.386-.152-.574-.234l-.656-.294-3.277,1.639L8.689,76.5l1.639-3.278-.294-.656c-.084-.188-.159-.378-.234-.574l-.255-.671-3.481-1.16V66.286l3.481-1.16.255-.671c.075-.2.152-.386.234-.574l.294-.656L8.689,59.948l2.743-2.743,3.278,1.639.656-.294c.188-.084.378-.159.574-.234l.671-.255,1.16-3.481H19.4L33.112,70.247Zm57.525.1-.208.775a21.1,21.1,0,0,1-2.113,5.111l-.4.7,1.642,3.4-4.91,4.91-3.4-1.642-.7.4A21.241,21.241,0,0,1,72.2,87.191l-.775.208-1.244,3.569H63.237L61.993,87.4l-.775-.208a21.1,21.1,0,0,1-5.111-2.113l-.7-.4-3.4,1.642-4.91-4.91,1.642-3.4-.4-.7A21.241,21.241,0,0,1,46.228,72.2l-.208-.775-3.569-1.244V63.238l3.569-1.244.208-.775a21.1,21.1,0,0,1,2.113-5.111l.4-.7-1.642-3.4,4.91-4.91,3.4,1.642.7-.4a21.241,21.241,0,0,1,5.111-2.113l.775-.208,1.244-3.569h6.944l1.244,3.569.775.208a21.1,21.1,0,0,1,5.111,2.113l.7.4,3.4-1.642,4.91,4.91-1.642,3.4.4.7a21.241,21.241,0,0,1,2.113,5.111l.208.775,3.569,1.244v6.944Zm0,0" fill="#fff"/>
    <path id="Path_61" data-name="Path 61" d="M287.161,272a15.161,15.161,0,1,0,15.161,15.161A15.178,15.178,0,0,0,287.161,272Zm0,27.29a12.129,12.129,0,1,1,12.129-12.129A12.143,12.143,0,0,1,287.161,299.29Zm0,0" transform="translate(-220.452 -220.452)" fill="#fff"/>
    <path id="Path_62" data-name="Path 62" d="M313.1,304a9.1,9.1,0,1,0,9.1,9.1A9.106,9.106,0,0,0,313.1,304Zm0,15.161a6.065,6.065,0,1,1,6.065-6.065A6.071,6.071,0,0,1,313.1,319.161Zm0,0" transform="translate(-246.387 -246.387)" fill="#fff"/>
    <path id="Path_63" data-name="Path 63" d="M335.161,71.581a7.581,7.581,0,1,0-7.581,7.581A7.59,7.59,0,0,0,335.161,71.581Zm-12.129,0a4.548,4.548,0,1,1,4.548,4.548A4.554,4.554,0,0,1,323.032,71.581Zm0,0" transform="translate(-259.355 -51.871)" fill="#fff"/>
    <path id="Path_64" data-name="Path 64" d="M64,327.581A7.581,7.581,0,1,0,71.581,320,7.59,7.59,0,0,0,64,327.581Zm12.129,0a4.548,4.548,0,1,1-4.548-4.548A4.554,4.554,0,0,1,76.129,327.581Zm0,0" transform="translate(-51.871 -259.355)" fill="#fff"/>
  </g>
</svg>
