<svg id="phone" xmlns="http://www.w3.org/2000/svg" width="21.8" height="21.8" viewBox="0 0 21.8 21.8">
  <g id="Group_7" data-name="Group 7">
    <path id="Path_20" data-name="Path 20" d="M20.051,14.309a12.377,12.377,0,0,1-3.887-.619,1.777,1.777,0,0,0-1.728.364L11.985,15.9a13.546,13.546,0,0,1-6.09-6.089l1.8-2.387a1.762,1.762,0,0,0,.433-1.785A12.4,12.4,0,0,1,7.5,1.749,1.751,1.751,0,0,0,5.753,0h-4A1.751,1.751,0,0,0,0,1.749,20.073,20.073,0,0,0,20.051,21.8,1.751,1.751,0,0,0,21.8,20.051V16.058A1.751,1.751,0,0,0,20.051,14.309Z" fill="#fff"/>
  </g>
</svg>
