<svg xmlns="http://www.w3.org/2000/svg" xmlns:xlink="http://www.w3.org/1999/xlink" width="89.333" height="91.537" viewBox="0 0 89.333 91.537">
  <defs>
    <clipPath id="clip-path">
      <rect id="Rectangle_3" data-name="Rectangle 3" width="89.333" height="91.537" transform="translate(-16 2020)" fill="#fff"/>
    </clipPath>
  </defs>
  <g id="security" transform="translate(16 -2020)" clip-path="url(#clip-path)">
    <g id="surface1" transform="translate(-10.308 2020)">
      <path id="Path_54" data-name="Path 54" d="M77.858,24.832l0-.071c-.04-.879-.066-1.81-.082-2.845a9.7,9.7,0,0,0-9.135-9.5c-10.524-.587-18.666-4.019-25.622-10.8l-.059-.057a5.858,5.858,0,0,0-7.962,0l-.059.057c-6.956,6.78-15.1,10.212-25.622,10.8a9.7,9.7,0,0,0-9.135,9.5C.163,22.945.136,23.876.1,24.761l0,.165C-.112,35.659-.367,49.015,4.1,61.138A46.1,46.1,0,0,0,15.16,78.363C20.719,83.788,28,88.1,36.8,91.164a6.7,6.7,0,0,0,.887.242,6.551,6.551,0,0,0,2.576,0,6.724,6.724,0,0,0,.891-.243c8.79-3.074,16.064-7.383,21.618-12.807A46.16,46.16,0,0,0,73.831,61.125C78.316,48.966,78.062,35.585,77.858,24.832ZM68.791,59.267c-4.713,12.777-14.333,21.552-29.41,26.825a1.348,1.348,0,0,1-.17.046,1.205,1.205,0,0,1-.472,0,1.336,1.336,0,0,1-.169-.045C23.477,80.829,13.851,72.059,9.142,59.281,5.023,48.106,5.257,35.846,5.463,25.029v-.06c.042-.93.07-1.9.085-2.973a4.312,4.312,0,0,1,4.064-4.22,47.126,47.126,0,0,0,16-3.518A41.848,41.848,0,0,0,38.644,5.5a.5.5,0,0,1,.665,0,41.864,41.864,0,0,0,13.035,8.758,47.128,47.128,0,0,0,16,3.518A4.311,4.311,0,0,1,72.4,22c.016,1.075.044,2.049.086,2.972C72.694,35.8,72.922,48.069,68.791,59.267Zm0,0" transform="translate(-0.001 0.004)" fill="#fff"/>
      <path id="Path_55" data-name="Path 55" d="M374.871,500.1a22.813,22.813,0,1,0,22.812,22.812A22.838,22.838,0,0,0,374.871,500.1Zm0,40.253a17.441,17.441,0,1,1,17.44-17.441A17.461,17.461,0,0,1,374.871,540.349Zm0,0" transform="translate(-335.897 -477.138)" fill="#fff"/>
      <path id="Path_56" data-name="Path 56" d="M616.538,826.391l-10.6,10.6-2.876-2.876a2.686,2.686,0,0,0-3.8,3.8l4.775,4.776a2.686,2.686,0,0,0,3.8,0l12.5-12.5a2.686,2.686,0,0,0-3.8-3.8Zm0,0" transform="translate(-571.008 -787.704)" fill="#fff"/>
    </g>
  </g>
</svg>
