<svg xmlns="http://www.w3.org/2000/svg" width="245.793" height="246.697" viewBox="0 0 245.793 246.697">
  <g id="services-logo" transform="translate(-284.391 -257.792)">
    <path id="Path_13" data-name="Path 13" d="M307.04,302.936l17.127,17.123,28.019-28.022L380.2,320.06l17.127-17.123-45.142-45.145Z" transform="translate(55.208)" fill="rgba(0,48,147,0.48)"/>
    <path id="Path_14" data-name="Path 14" d="M352.185,339.465l-28.019-28.022L307.04,328.567l45.145,45.142,45.142-45.142L380.2,311.444Z" transform="translate(55.208 130.779)" fill="rgba(0,48,147,0.48)"/>
    <path id="Path_15" data-name="Path 15" d="M354.905,280.573,337.779,297.7,365.8,325.714l-28.022,28.018,17.126,17.123,45.142-45.142Z" transform="translate(130.136 55.529)" fill="rgba(0,48,147,0.48)"/>
    <path id="Path_16" data-name="Path 16" d="M397.319,297.665,380.2,280.536,308.67,352.061l-1.663,1.666,17.117,17.133Z" transform="translate(55.128 55.44)" fill="rgba(0,48,147,0.48)"/>
    <path id="Path_17" data-name="Path 17" d="M329.533,280.542l-45.142,45.139,45.142,45.145L346.659,353.7l-28.022-28.022,28.022-28.012Z" transform="translate(0 55.456)" fill="rgba(0,48,147,0.48)"/>
  </g>
</svg>
