<svg xmlns="http://www.w3.org/2000/svg" width="83.37" height="95.721" viewBox="0 0 83.37 95.721">
  <g id="staff" transform="translate(-5 -1)">
    <path id="Path_65" data-name="Path 65" d="M88.37,72.019A21.642,21.642,0,0,0,73.478,51.488a12.319,12.319,0,0,0-8.637-22.535c.086-.25.2-.494.272-.747l3.187-.75V17.85l-3.183-.75a18.922,18.922,0,0,0-1.5-3.617L65.337,10.7,58.6,3.961,55.817,5.684a19.112,19.112,0,0,0-3.619-1.5L51.449,1H41.921l-.749,3.183a19.053,19.053,0,0,0-3.619,1.5L34.769,3.961,28.033,10.7l1.721,2.784a19.123,19.123,0,0,0-1.5,3.617l-3.183.752v9.608l3.185.75c.076.252.185.5.272.746a12.189,12.189,0,0,0-1.913-.165,12.342,12.342,0,0,0-6.722,22.7A21.642,21.642,0,0,0,5,72.019v6.176H28.972a21.477,21.477,0,0,0-3.9,12.351v6.176H68.3V90.545a21.477,21.477,0,0,0-3.9-12.351H88.37ZM69.843,55.036c0,2.51-1.414,4.632-3.088,4.632s-3.088-2.121-3.088-4.632a6.2,6.2,0,0,1,.154-1.3,17.461,17.461,0,0,1,5.871.015A6.264,6.264,0,0,1,69.843,55.036ZM46.685,68.931a9.263,9.263,0,1,1,9.263-9.263A9.273,9.273,0,0,1,46.685,68.931ZM34.667,55.342c.131.063.264.122.394.188a11.818,11.818,0,0,0-.579,5.949L32.426,66l-3.742-4.676Zm12.018-8.025a12.347,12.347,0,0,0-10.241,5.455,21.588,21.588,0,0,0-3.1-1.285,12.346,12.346,0,0,0,5.626-10.346c0-.287-.023-.568-.043-.849a19.349,19.349,0,0,0,2.249.832l.749,3.183h9.529l.749-3.183a19.349,19.349,0,0,0,2.249-.832c-.02.281-.043.562-.043.849A12.344,12.344,0,0,0,60.03,51.487a21.474,21.474,0,0,0-3.1,1.286,12.351,12.351,0,0,0-10.242-5.456Zm29.334-6.176a9.263,9.263,0,1,1-9.263-9.263,9.273,9.273,0,0,1,9.263,9.263ZM31,26.548l-.225-.919-2.62-.618V20.294l2.618-.616L31,18.759a16,16,0,0,1,1.868-4.507l.489-.807-1.417-2.29,3.281-3.281,2.29,1.417L38.32,8.8a16,16,0,0,1,4.508-1.868l.919-.225.619-2.62H49l.616,2.618.919.225A16.049,16.049,0,0,1,55.047,8.8l.807.491,2.29-1.417,3.281,3.281-1.416,2.291.489.807a16,16,0,0,1,1.868,4.507l.225.919,2.62.618v4.718l-2.618.616-.225.919a15.911,15.911,0,0,1-1.459,3.718A12.43,12.43,0,0,0,55.4,36.292l-.352.213a16,16,0,0,1-4.508,1.868l-.919.225-.616,2.618H44.368l-.616-2.62-.919-.225A16.034,16.034,0,0,1,38.325,36.5l-.352-.213a12.427,12.427,0,0,0-5.509-6.027A15.774,15.774,0,0,1,31,26.548ZM17.351,41.141A9.263,9.263,0,1,1,26.614,50.4a9.273,9.273,0,0,1-9.263-9.263ZM31.495,54.148l-4.88,4.88-4.866-4.866a18.239,18.239,0,0,1,9.747-.014Zm-6.949,7.178L20.8,66,16.493,56.52a18.517,18.517,0,0,1,2.081-1.167ZM8.088,72.019A18.457,18.457,0,0,1,14,58.491L20.075,71.86l6.54-8.176,6.54,8.176,2.784-6.125a12.441,12.441,0,0,0,4.023,4.281,21.618,21.618,0,0,0-8.376,5.092H15.807V65.845H12.719v9.263H8.088Zm38.6,0a18.389,18.389,0,0,1,7.533,1.616L46.685,91.248,39.152,73.634A18.413,18.413,0,0,1,46.685,72.019ZM28.158,90.545A18.517,18.517,0,0,1,36.43,75.128l7.914,18.505H35.878V84.37H32.79v9.263H28.158Zm37.053,3.088H60.58V84.37H57.492v9.263H49.025l7.914-18.505a18.517,18.517,0,0,1,8.272,15.417ZM85.282,75.107H80.65V65.843H77.563v9.263H61.783a21.629,21.629,0,0,0-8.376-5.092,12.274,12.274,0,0,0,4.9-14.482,18.2,18.2,0,0,1,2.314-.994c-.009.165-.043.33-.043.5,0,4.256,2.77,7.719,6.176,7.719s6.176-3.463,6.176-7.719c0-.161-.032-.318-.042-.479A18.543,18.543,0,0,1,85.282,72.019Z" fill="#fff"/>
    <path id="Path_66" data-name="Path 66" d="M34.176,23.351A6.176,6.176,0,1,0,28,17.176,6.182,6.182,0,0,0,34.176,23.351Zm0-9.263a3.088,3.088,0,1,1-3.088,3.088A3.091,3.091,0,0,1,34.176,14.088Z" transform="translate(12.509 5.439)" fill="#fff"/>
    <path id="Path_67" data-name="Path 67" d="M36.351,31.7A12.351,12.351,0,1,0,24,19.351,12.366,12.366,0,0,0,36.351,31.7Zm0-21.614a9.263,9.263,0,1,1-9.263,9.263A9.273,9.273,0,0,1,36.351,10.088Z" transform="translate(10.334 3.263)" fill="#fff"/>
  </g>
</svg>
