<svg xmlns="http://www.w3.org/2000/svg" width="87.738" height="90.5" viewBox="0 0 87.738 90.5">
  <g id="strategy" transform="translate(-7.815)">
    <g id="Group_10" data-name="Group 10" transform="translate(78.059 34.046)">
      <g id="Group_9" data-name="Group 9">
        <path id="Path_22" data-name="Path 22" d="M408.232,193.133a1.768,1.768,0,0,0-2.5,2.5c.027.027.056.055.083.08a1.768,1.768,0,0,0,2.417-2.58Z" transform="translate(-405.214 -192.615)" fill="#fff"/>
      </g>
    </g>
    <g id="Group_12" data-name="Group 12" transform="translate(55.177 27.085)">
      <g id="Group_11" data-name="Group 11">
        <path id="Path_23" data-name="Path 23" d="M298.072,157.806a27.675,27.675,0,0,0-3.087-1.822,23.706,23.706,0,0,0-17.976-1.714,1.768,1.768,0,1,0,1.049,3.376,20.236,20.236,0,0,1,15.339,1.5,24.611,24.611,0,0,1,2.691,1.589,1.768,1.768,0,1,0,1.986-2.925Z" transform="translate(-275.764 -153.23)" fill="#fff"/>
      </g>
    </g>
    <g id="Group_14" data-name="Group 14" transform="translate(19.102 11.217)">
      <g id="Group_13" data-name="Group 13" transform="translate(0)">
        <path id="Path_24" data-name="Path 24" d="M146.132,106.776c-.725-1.52-1.925-4.038-1.946-4.87,2.067-5.095,1.313-10.733-2.13-15.89-5.294-7.932-16.146-13.689-25.8-13.689a31.63,31.63,0,0,0-14.572,3.541A15.131,15.131,0,1,0,78.9,91.5a2.954,2.954,0,0,1,1.707,2.626V104.47a3.583,3.583,0,0,0,3.578,3.579h.6a31.48,31.48,0,0,0,10.66,19.933c.056.175.22.993-.483,3.435-.547,1.9-1.387,4.016-2.127,5.881-.5,1.248-.924,2.325-1.183,3.14a1.768,1.768,0,0,0,1.685,2.3h25.231c.829,0,1.968-.371,2.684-2.14a17.279,17.279,0,0,0,.731-2.676c.21-.955.7-3.192,1.192-3.463a.358.358,0,0,1,.1.006,1.738,1.738,0,0,0,.274.021c2.642,0,4.8.12,6.706.225,5.587.31,8.96.5,11.918-3.764,1.5-2.167,1.334-5.328,1.154-8.675a31.571,31.571,0,0,1-.019-4.985,15.423,15.423,0,0,1,1.565-1.167c1.666-1.145,3.24-2.225,3.24-3.868C148.12,111.009,147.365,109.361,146.132,106.776ZM80.752,88.487a11.6,11.6,0,1,1,12.1,0,6.432,6.432,0,0,0-3.1,3.787h-5.9A6.435,6.435,0,0,0,80.752,88.487Zm8.7,7.323v2.585H84.147V95.809h5.308Zm-5.264,8.7a.051.051,0,0,1-.043-.044V101.93h5.308v2.541a.051.051,0,0,1-.044.044Zm58.688,8.7c-1.521,1.045-2.835,1.947-3.029,3.312a31.467,31.467,0,0,0-.047,5.944c.134,2.483.286,5.3-.527,6.469-1.759,2.534-3.28,2.558-8.818,2.25-1.827-.1-4.095-.227-6.783-.231a3.768,3.768,0,0,0-3.945,2.338,16.424,16.424,0,0,0-1.191,3.872,18.783,18.783,0,0,1-.525,2.04H95.888l.239-.6c2.546-6.412,4.159-11.114,1.7-13.236a27.972,27.972,0,0,1-9.473-17.318h1.052a3.583,3.583,0,0,0,3.579-3.579V94.13A2.955,2.955,0,0,1,94.7,91.5a15.028,15.028,0,0,0,7.187-11.7,28.084,28.084,0,0,1,14.371-3.938c8.422,0,18.25,5.209,22.861,12.116,1.976,2.96,3.885,7.566,1.755,12.694-.694,1.67.335,3.986,2.07,7.626a31.9,31.9,0,0,1,1.59,3.681A16.7,16.7,0,0,1,142.879,113.211Z" transform="translate(-71.668 -63.458)" fill="#fff"/>
      </g>
    </g>
    <g id="Group_16" data-name="Group 16" transform="translate(36.573 19.173)">
      <g id="Group_15" data-name="Group 15">
        <path id="Path_25" data-name="Path 25" d="M176.845,113.148a7.077,7.077,0,0,0-3.753-4.482,1.768,1.768,0,0,0-1.621,3.142,3.543,3.543,0,0,1,1.96,2.26,5.359,5.359,0,0,1-.49,3.652,1.768,1.768,0,1,0,2.981,1.9A8.86,8.86,0,0,0,176.845,113.148Z" transform="translate(-170.514 -108.47)" fill="#fff"/>
      </g>
    </g>
    <g id="Group_18" data-name="Group 18" transform="translate(32.466)">
      <g id="Group_17" data-name="Group 17">
        <path id="Path_26" data-name="Path 26" d="M149.047,0a1.768,1.768,0,0,0-1.768,1.768V6.807a1.768,1.768,0,0,0,3.535,0V1.768A1.768,1.768,0,0,0,149.047,0Z" transform="translate(-147.279)" fill="#fff"/>
      </g>
    </g>
    <g id="Group_20" data-name="Group 20" transform="translate(7.815 24.652)">
      <g id="Group_19" data-name="Group 19">
        <path id="Path_27" data-name="Path 27" d="M14.622,139.465H9.583a1.768,1.768,0,1,0,0,3.535h5.039a1.768,1.768,0,0,0,0-3.535Z" transform="translate(-7.815 -139.465)" fill="#fff"/>
      </g>
    </g>
    <g id="Group_22" data-name="Group 22" transform="translate(20.14 3.303)">
      <g id="Group_21" data-name="Group 21">
        <path id="Path_28" data-name="Path 28" d="M83.363,23.93l-2.519-4.362a1.768,1.768,0,1,0-3.061,1.768L80.3,25.7a1.768,1.768,0,1,0,3.061-1.768Z" transform="translate(-77.545 -18.684)" fill="#fff"/>
      </g>
    </g>
    <g id="Group_24" data-name="Group 24" transform="translate(11.117 12.326)">
      <g id="Group_23" data-name="Group 23" transform="translate(0)">
        <path id="Path_29" data-name="Path 29" d="M33.509,72.49l-4.363-2.519a1.768,1.768,0,1,0-1.768,3.061l4.363,2.519a1.768,1.768,0,0,0,1.768-3.061Z" transform="translate(-26.495 -69.735)" fill="#fff"/>
      </g>
    </g>
    <g id="Group_26" data-name="Group 26" transform="translate(49.453 12.326)">
      <g id="Group_25" data-name="Group 25">
        <path id="Path_30" data-name="Path 30" d="M251.043,70.616a1.768,1.768,0,0,0-2.415-.647l-4.363,2.519a1.768,1.768,0,1,0,1.768,3.061l4.363-2.519A1.767,1.767,0,0,0,251.043,70.616Z" transform="translate(-243.382 -69.732)" fill="#fff"/>
      </g>
    </g>
    <g id="Group_28" data-name="Group 28" transform="translate(11.117 34.458)">
      <g id="Group_27" data-name="Group 27" transform="translate(0)">
        <path id="Path_31" data-name="Path 31" d="M34.157,195.83a1.768,1.768,0,0,0-2.414-.647L27.379,197.7a1.768,1.768,0,1,0,1.767,3.062l4.363-2.519A1.767,1.767,0,0,0,34.157,195.83Z" transform="translate(-26.495 -194.946)" fill="#fff"/>
      </g>
    </g>
    <g id="Group_30" data-name="Group 30" transform="translate(20.14 42.268)">
      <g id="Group_29" data-name="Group 29">
        <path id="Path_32" data-name="Path 32" d="M82.352,239.363a1.768,1.768,0,0,0-2.415.647l-2.155,3.734a1.768,1.768,0,1,0,3.062,1.768L83,241.778A1.767,1.767,0,0,0,82.352,239.363Z" transform="translate(-77.545 -239.127)" fill="#fff"/>
      </g>
    </g>
    <g id="Group_32" data-name="Group 32" transform="translate(42.274 3.302)">
      <g id="Group_31" data-name="Group 31">
        <path id="Path_33" data-name="Path 33" d="M207.934,18.92a1.767,1.767,0,0,0-2.415.647L203,23.929a1.768,1.768,0,1,0,3.061,1.768l2.519-4.362A1.767,1.767,0,0,0,207.934,18.92Z" transform="translate(-202.763 -18.683)" fill="#fff"/>
      </g>
    </g>
  </g>
</svg>
